HIERARCHY
ROOT Hips
{
	OFFSET -0.001795 -0.223333 0.028219
	CHANNELS 6 Xposition Yposition Zposition Zrotation Yrotation Xrotation 
	JOINT LeftUpLeg
	{
		OFFSET 0.069520 -0.091406 -0.006815
		CHANNELS 3 Zrotation Yrotation Xrotation
		JOINT LeftLeg
		{
			OFFSET 0.034277 -0.375199 -0.004496
			CHANNELS 3 Zrotation Yrotation Xrotation
			JOINT LeftFoot
			{
				OFFSET -0.013596 -0.397961 -0.043693
				CHANNELS 3 Zrotation Yrotation Xrotation
				JOINT LeftToe
				{
					OFFSET 0.026358 -0.055791 0.119288
					CHANNELS 3 Zrotation Yrotation Xrotation
					End Site
					{
						OFFSET 0.000000 0.000000 0.000000
					}
				}
			}
		}
	}
	JOINT RightUpLeg
	{
		OFFSET -0.067670 -0.090522 -0.004320
		CHANNELS 3 Zrotation Yrotation Xrotation
		JOINT RightLeg
		{
			OFFSET -0.038290 -0.382569 -0.008850
			CHANNELS 3 Zrotation Yrotation Xrotation
			JOINT RightFoot
			{
				OFFSET 0.015774 -0.398415 -0.042312
				CHANNELS 3 Zrotation Yrotation Xrotation
				JOINT RightToe
				{
					OFFSET -0.025372 -0.048144 0.123348
					CHANNELS 3 Zrotation Yrotation Xrotation
					End Site
					{
						OFFSET 0.000000 0.000000 0.000000
					}
				}
			}
		}
	}
	JOINT Spine
	{
		OFFSET -0.002533 0.108963 -0.026696
		CHANNELS 3 Zrotation Yrotation Xrotation
		JOINT Spine1
		{
			OFFSET 0.005487 0.135180 0.001092
			CHANNELS 3 Zrotation Yrotation Xrotation
			JOINT Spine2
			{
				OFFSET 0.001457 0.052922 0.025425
				CHANNELS 3 Zrotation Yrotation Xrotation
				JOINT Neck
				{
					OFFSET -0.002778 0.213870 -0.042857
					CHANNELS 3 Zrotation Yrotation Xrotation
					JOINT Head
					{
						OFFSET 0.005152 0.064970 0.051349
						CHANNELS 3 Zrotation Yrotation Xrotation
						End Site
						{
							OFFSET 0.000000 0.000000 0.000000
						}
					}
				}
				JOINT LeftShoulder
				{
					OFFSET 0.078845 0.121749 -0.034090
					CHANNELS 3 Zrotation Yrotation Xrotation
					JOINT LeftArm
					{
						OFFSET 0.090977 0.030469 -0.008868
						CHANNELS 3 Zrotation Yrotation Xrotation
						JOINT LeftForeArm
						{
							OFFSET 0.259612 -0.012772 -0.027456
							CHANNELS 3 Zrotation Yrotation Xrotation
							JOINT LeftHand
							{
								OFFSET 0.249234 0.008986 -0.001171
								CHANNELS 3 Zrotation Yrotation Xrotation
								End Site
								{
									OFFSET 0.000000 0.000000 0.000000
								}
							}
						}
					}
				}
				JOINT RightShoulder
				{
					OFFSET -0.081759 0.118833 -0.038615
					CHANNELS 3 Zrotation Yrotation Xrotation
					JOINT RightArm
					{
						OFFSET -0.096012 0.032551 -0.009143
						CHANNELS 3 Zrotation Yrotation Xrotation
						JOINT RightForeArm
						{
							OFFSET -0.253742 -0.013329 -0.021401
							CHANNELS 3 Zrotation Yrotation Xrotation
							JOINT RightHand
							{
								OFFSET -0.255298 0.007772 -0.005559
								CHANNELS 3 Zrotation Yrotation Xrotation
								End Site
								{
									OFFSET 0.000000 0.000000 0.000000
								}
							}
						}
					}
				}
			}
		}
	}
}
MOTION
Frames: 14
Frame Time: 0.050000
0.054914 0.523811 0.075043 9.783694 -17.963697 62.175085 15.326608 1.436837 -30.724474 -13.039311 18.524743 65.717450 -10.271231 -7.635715 22.788924 0.000000 0.000000 0.000000 -9.011968 2.636134 -19.919648 -5.492340 4.758776 33.729634 -6.018242 -12.573099 -8.718801 0.000000 0.000000 0.000000 2.950759 -1.273051 30.637066 -5.218810 1.502632 -23.841868 -16.302580 2.932535 11.982814 9.595497 -0.095167 -39.678723 0.000000 0.000000 0.000000 4.006925 -27.803810 11.668765 -2.274575 -49.691819 -2.967520 81.748825 -37.557589 -21.385519 0.000000 0.000000 0.000000 -33.631092 11.241299 5.239444 19.077932 63.296607 5.329913 -60.325051 30.780971 -14.959885 0.000000 0.000000 0.000000 
0.058847 0.516404 0.075619 8.523885 -16.415406 62.275947 11.413342 0.661716 -31.855488 -12.483360 15.417875 61.607638 -10.195634 -6.669152 25.036403 0.000000 0.000000 0.000000 -7.318784 2.495131 -19.535472 -6.942911 5.222797 33.496991 -4.274897 -8.284166 -6.493154 0.000000 0.000000 0.000000 3.104752 -1.465406 31.181748 -5.234369 1.496898 -24.674030 -15.388039 6.166705 11.494024 12.199960 -0.590409 -39.317980 0.000000 0.000000 0.000000 4.368301 -27.903101 11.062922 1.296792 -52.715915 -4.814498 80.045987 -39.356894 -23.132508 0.000000 0.000000 0.000000 -29.277921 10.254416 4.425279 24.316791 62.817792 9.979658 -59.136488 33.329313 -15.048363 0.000000 0.000000 0.000000 
0.061812 0.511449 0.077377 8.761907 -14.351439 61.985702 6.564140 -0.474128 -32.865653 -9.067524 10.274200 58.929265 -12.239100 -8.165882 27.748005 0.000000 0.000000 0.000000 -7.168220 2.372239 -19.047910 -5.342482 4.376880 33.652249 -3.700977 -5.583955 -8.593957 0.000000 0.000000 0.000000 3.480961 -1.884169 31.546430 -4.141640 1.290921 -24.224845 -15.189760 4.834161 10.317213 12.952166 -1.353765 -36.054698 0.000000 0.000000 0.000000 5.082574 -28.123101 11.044628 4.524542 -52.664915 -5.920827 76.286581 -36.640274 -19.804293 0.000000 0.000000 0.000000 -26.712583 12.727769 4.953657 31.160261 62.567941 13.942102 -62.705219 36.256467 -17.673545 0.000000 0.000000 0.000000 
0.063425 0.505519 0.079128 6.287658 -14.086789 62.551646 5.383333 -0.555109 -32.773125 -8.596965 9.509305 56.470086 -11.482654 -7.119056 28.167351 0.000000 0.000000 0.000000 -5.710409 2.538240 -21.161420 -5.650207 5.121047 36.210660 -1.354378 -0.591907 -4.923701 0.000000 0.000000 0.000000 2.367608 -1.279940 32.132375 -3.997828 1.265052 -25.517808 -13.987695 7.097179 10.195993 14.613851 -2.235021 -33.498671 0.000000 0.000000 0.000000 4.522816 -29.901316 11.656452 11.473494 -52.543433 -9.009675 69.825713 -34.804494 -16.818309 0.000000 0.000000 0.000000 -20.703578 13.274012 5.053065 35.510838 62.614366 17.269217 -59.409048 37.762632 -16.770737 0.000000 0.000000 0.000000 
0.063847 0.500937 0.079147 3.461939 -12.728335 63.086334 4.888017 -0.686481 -32.013495 -6.279456 7.263027 54.278443 -10.609114 -6.477672 27.391155 0.000000 0.000000 0.000000 -2.546934 2.686496 -22.843701 -6.775952 6.112604 38.242388 0.319375 5.101375 -5.248491 0.000000 0.000000 0.000000 1.835183 -1.057049 32.863696 -2.380733 0.975467 -24.930696 -13.425024 7.804035 9.631757 14.264184 -2.190732 -32.994273 0.000000 0.000000 0.000000 9.695284 -29.229310 10.341284 17.269353 -52.806662 -11.554699 61.969189 -26.418224 -10.259261 0.000000 0.000000 0.000000 -17.688672 14.825046 5.557943 38.495662 62.519018 19.346249 -59.412331 36.787904 -15.917523 0.000000 0.000000 0.000000 
0.063766 0.494726 0.076799 1.875483 -11.575285 64.035249 5.221167 -0.667943 -32.380176 -5.812759 6.555597 53.167679 -9.070043 -4.419207 27.542798 0.000000 0.000000 0.000000 0.021608 3.017575 -25.112740 -8.062833 7.255039 40.648701 1.526387 10.625770 -6.422597 0.000000 0.000000 0.000000 1.192763 -0.775522 34.374975 -1.568627 0.838765 -24.694271 -12.561971 7.165677 10.233390 13.243900 -1.505878 -35.149640 0.000000 0.000000 0.000000 17.362588 -29.979388 9.292796 23.376902 -49.524823 -13.016328 53.196729 -12.530573 -2.933024 0.000000 0.000000 0.000000 -17.734670 15.401344 5.698206 34.305241 65.144607 17.942673 -52.573616 30.056817 -10.742222 0.000000 0.000000 0.000000 
0.063814 0.489313 0.073575 0.602054 -10.593012 64.974668 6.239052 -0.408849 -34.732788 -3.979375 5.626339 55.901881 -8.673157 -3.900579 27.237580 0.000000 0.000000 0.000000 1.387825 3.555590 -28.246147 -7.261219 7.774411 44.879351 2.322759 12.277217 -5.365504 0.000000 0.000000 0.000000 1.214947 -0.823023 35.804911 -1.239004 0.772808 -24.310062 -12.415137 6.449891 10.185039 13.600955 -1.506476 -35.804158 0.000000 0.000000 0.000000 22.548184 -30.864296 8.595991 30.310490 -46.051243 -14.138093 38.451074 -2.787714 0.401188 0.000000 0.000000 0.000000 -18.422529 16.916425 6.142803 22.606406 68.349035 11.509557 -43.560227 20.832885 -5.545833 0.000000 0.000000 0.000000 
0.064081 0.485942 0.071882 -0.723473 -10.044504 66.105816 7.314881 0.014637 -37.695507 -3.843514 5.870245 58.289378 -8.653859 -3.539766 27.775622 0.000000 0.000000 0.000000 2.230832 4.113048 -31.070521 -7.042822 8.339981 47.687520 1.721981 13.209444 -7.616892 0.000000 0.000000 0.000000 1.085857 -0.736178 37.090333 -1.336125 0.773675 -23.658083 -11.835068 5.557239 10.628843 11.598072 -0.919786 -36.277900 0.000000 0.000000 0.000000 27.173909 -31.721641 7.877020 32.865334 -43.124748 -13.546490 26.344464 4.363583 1.349314 0.000000 0.000000 0.000000 -21.182172 17.772791 6.196739 8.350306 70.950139 2.329619 -35.843638 10.218113 -1.717979 0.000000 0.000000 0.000000 
0.064553 0.483022 0.073136 -1.895367 -10.131730 67.932365 7.580626 0.443115 -40.691156 -3.830181 6.323059 60.443193 -8.208173 -3.010291 27.473341 0.000000 0.000000 0.000000 3.201430 4.657096 -33.142328 -6.812385 8.612073 48.446398 2.135782 11.807018 -5.235236 0.000000 0.000000 0.000000 0.666261 -0.387769 37.744171 -1.343748 0.760813 -23.025099 -11.563549 5.156866 11.341849 11.191635 -0.664574 -37.560852 0.000000 0.000000 0.000000 30.524827 -31.721753 7.137876 33.762881 -41.698798 -12.949188 18.809522 6.716108 1.082479 0.000000 0.000000 0.000000 -25.386988 17.733837 5.914452 -9.852982 70.423797 -10.073213 -28.017490 3.242774 -0.064518 0.000000 0.000000 0.000000 
0.064979 0.481891 0.077243 -2.763933 -9.490156 68.668447 8.081195 0.695887 -42.309184 -3.519152 6.164831 61.755170 -8.113032 -3.520692 25.766747 0.000000 0.000000 0.000000 4.144748 5.107050 -34.843288 -6.381380 8.694192 49.752325 1.973084 10.553772 -4.627290 0.000000 0.000000 0.000000 0.464580 -0.255494 39.252597 -0.894268 0.655581 -22.180384 -11.912969 4.544931 11.274984 10.868350 -0.293502 -39.403819 0.000000 0.000000 0.000000 31.242664 -32.896157 7.211596 32.802285 -40.862361 -12.261475 15.210953 7.714328 0.891600 0.000000 0.000000 0.000000 -27.649884 18.180854 5.872293 -18.769060 69.194372 -15.782181 -24.341414 -0.128764 0.457986 0.000000 0.000000 0.000000 
0.065266 0.481418 0.083105 -3.838902 -8.897472 69.107477 9.382246 1.173936 -43.560317 -3.927254 6.793688 63.298530 -8.491815 -3.975959 25.742254 0.000000 0.000000 0.000000 4.735572 5.428628 -36.015573 -5.278180 8.328657 50.931774 1.338935 8.289160 -4.583465 0.000000 0.000000 0.000000 0.299115 -0.125575 40.565455 -1.200757 0.711449 -21.857762 -11.766261 4.740422 11.274862 11.644107 -0.160874 -41.240649 0.000000 0.000000 0.000000 31.270772 -32.609358 7.202730 29.895174 -42.705557 -12.146959 16.057650 5.667731 0.711344 0.000000 0.000000 0.000000 -28.075805 18.737969 5.893375 -21.322551 67.039688 -16.558994 -22.978672 0.566775 0.245427 0.000000 0.000000 0.000000 
0.065401 0.480269 0.089639 -4.912331 -8.169318 69.205221 9.704898 1.305308 -44.138666 -2.436591 5.759463 65.158294 -9.965813 -5.849710 25.821802 0.000000 0.000000 0.000000 5.331899 5.831543 -37.415963 -3.829033 8.022221 53.647206 1.962438 5.831354 -0.237364 0.000000 0.000000 0.000000 0.179899 -0.086538 41.163926 -1.303818 0.707234 -20.551574 -11.211411 5.762734 11.038184 12.101484 0.176545 -43.792636 0.000000 0.000000 0.000000 30.913164 -33.021744 7.448293 25.889621 -43.902128 -11.626027 20.115519 2.973133 0.569060 0.000000 0.000000 0.000000 -29.756857 17.612142 5.358470 -22.219958 66.387514 -16.295593 -21.409939 0.766219 0.142948 0.000000 0.000000 0.000000 
0.066072 0.481030 0.096565 -6.965347 -7.686657 68.999260 11.403571 1.908490 -43.725147 -2.620780 6.583784 66.762969 -9.021391 -4.603375 25.605212 0.000000 0.000000 0.000000 6.205400 6.508097 -39.209209 -2.610784 8.384621 58.089283 0.874124 2.635182 -0.376397 0.000000 0.000000 0.000000 -0.600821 0.528819 42.396558 -1.376574 0.749518 -21.509765 -9.743115 7.164556 12.403608 12.838517 0.378742 -46.291560 0.000000 0.000000 0.000000 30.050873 -31.333478 7.358643 22.176763 -46.035764 -11.313695 24.889833 0.596110 0.314388 0.000000 0.000000 0.000000 -29.256979 16.608898 4.972772 -23.216458 66.220789 -16.420371 -22.300762 2.873886 -0.179872 0.000000 0.000000 0.000000 
0.067501 0.483070 0.104269 -6.540801 -5.769847 68.252776 11.991498 1.645391 -44.201435 -1.848079 5.373261 68.855221 -8.887563 -5.384136 23.141927 0.000000 0.000000 0.000000 5.657140 6.648572 -41.542669 0.791454 6.117647 63.634901 0.156195 1.715383 -1.983805 0.000000 0.000000 0.000000 -0.115069 -0.187402 43.113869 -0.842101 0.611152 -19.762320 -9.420261 6.723327 11.589788 13.069025 0.551178 -47.460723 0.000000 0.000000 0.000000 28.251013 -31.131731 7.848566 19.286941 -45.364210 -10.410224 30.793873 -2.634198 -0.223714 0.000000 0.000000 0.000000 -29.188058 17.632243 5.076318 -21.999665 64.662166 -14.982432 -24.421525 4.701433 -0.473179 0.000000 0.000000 0.000000 
